<svg width="358" height="884" xmlns="http://www.w3.org/2000/svg" xmlns:xlink="http://www.w3.org/1999/xlink" xml:space="preserve" overflow="hidden"><g transform="translate(-1708 -684)"><path d="M1964.91 903.141C1932.58 903.141 1906.36 929.316 1906.36 961.605 1906.36 993.894 1932.58 1020.07 1964.91 1020.07 1997.24 1020.07 2023.46 993.894 2023.46 961.605 2023.46 929.316 1997.24 903.141 1964.91 903.141ZM1807.85 903.141C1775.52 903.141 1749.31 929.316 1749.31 961.605 1749.31 993.894 1775.52 1020.07 1807.85 1020.07 1840.19 1020.07 1866.4 993.894 1866.4 961.605 1866.4 929.316 1840.19 903.141 1807.85 903.141ZM1887 732.125C1854.67 732.125 1828.45 758.301 1828.45 790.59 1828.45 822.879 1854.67 849.054 1887 849.054 1919.33 849.054 1945.55 822.879 1945.55 790.59 1945.55 758.301 1919.33 732.125 1887 732.125ZM1767.67 684 2006.33 684C2039.29 684 2066 710.677 2066 743.584L2066 1119.42C2066 1152.32 2039.29 1179 2006.33 1179L1767.67 1179C1734.71 1179 1708 1152.32 1708 1119.42L1708 743.584C1708 710.677 1734.71 684 1767.67 684Z" fill-rule="evenodd"/><path d="M1835 1177.21C1835 1163.84 1845.84 1153 1859.21 1153L1914.79 1153C1928.16 1153 1939 1163.84 1939 1177.21L1939 1543.79C1939 1557.16 1928.16 1568 1914.79 1568L1859.21 1568C1845.84 1568 1835 1557.16 1835 1543.79Z" fill-rule="evenodd"/></g></svg>